<svg xmlns="http://www.w3.org/2000/svg" width="104" height="70" viewBox="0 0 104 70" fill="none"><g id="TRC Logo Black" clip-path="url(#clip0_9707_6549)"><g id="Layer_1-2"><path id="Vector" d="M96.8636 58.0689H4.13477V57.2144H96.8636V58.0689Z" fill="#ED1C24"></path><path id="Vector_2" fill-rule="evenodd" clip-rule="evenodd" d="M15.1583 38.5657V44.3001C15.1583 44.4129 15.1099 44.4613 14.9053 44.4613C14.7008 44.4613 14.5555 44.4129 14.507 44.327L11.9072 39.8179C11.8049 39.6836 11.6542 39.5707 11.3581 39.5707H9.50644V53.8502C9.50644 54.1243 9.55488 54.3285 9.90476 54.4843L11.4066 55.14C11.5573 55.2099 11.7564 55.2744 11.7564 55.3442C11.7564 55.4141 11.708 55.4786 11.455 55.4786H3.70382C3.45621 55.4786 3.40238 55.4087 3.40238 55.3442C3.40238 55.2797 3.60155 55.2099 3.75226 55.14L5.25405 54.4843C5.60393 54.3285 5.65238 54.1243 5.65238 53.8502V39.5707H3.80071C3.49927 39.5707 3.34856 39.6836 3.25167 39.8179L0.651791 44.327C0.603346 44.4183 0.452629 44.4613 0.253467 44.4613C0.0543042 44.4613 0.00585938 44.4129 0.00585938 44.3001V38.5657C0.00585938 38.5174 0.108132 38.4744 0.253467 38.4744H14.9053C15.0561 38.4744 15.1583 38.5174 15.1583 38.5657ZM31.8557 38.4744H25.0034C24.8043 38.4744 24.702 38.5442 24.702 38.6087C24.702 38.6732 24.8043 38.7431 24.9496 38.8129L26.4998 39.4686C26.8013 39.603 26.8981 39.8287 26.8981 40.1028V52.4314C26.8981 53.431 26.3976 54.3339 24.5459 54.3339C22.1936 54.3339 21.9944 53.4256 21.9944 52.4314V40.1028C21.9944 39.8287 22.1452 39.603 22.3982 39.4686L23.9484 38.8129C24.0991 38.7431 24.196 38.6786 24.196 38.6087C24.196 38.5389 24.0937 38.4744 23.8946 38.4744H16.2457C16.0465 38.4744 15.9442 38.5442 15.9442 38.6087C15.9442 38.6732 16.0465 38.7431 16.1918 38.8129L17.7421 39.4686C18.0381 39.603 18.1404 39.8287 18.1404 40.1028V53.0225C18.1404 54.4306 20.1912 55.4678 24.1422 55.4678C27.5441 55.4678 29.9448 54.4252 29.9448 53.0225V40.1028C29.9448 39.8287 30.0955 39.603 30.3431 39.4686L31.8934 38.8129C32.0441 38.7431 32.141 38.6786 32.141 38.6087C32.141 38.5389 32.0441 38.4744 31.8449 38.4744H31.8557ZM45.797 49.4433C45.5979 49.4433 45.5979 49.5078 45.4956 49.5991L42.3951 53.9953C42.196 54.264 41.6954 54.3339 41.0925 54.3339H39.0955V40.0974C39.0955 39.8233 39.1978 39.6245 39.5476 39.4632L41.0494 38.8076C41.1517 38.7377 41.3993 38.6732 41.3993 38.6034C41.3993 38.5335 41.297 38.469 41.0979 38.469H33.2444C33.0453 38.469 32.943 38.5389 32.943 38.6034C32.943 38.6678 33.1906 38.7377 33.2929 38.8076L34.7947 39.4632C35.1445 39.6191 35.2468 39.8233 35.2468 40.0974V53.8341C35.2468 54.1081 35.1499 54.3124 34.7947 54.4682L33.2929 55.1239C33.1906 55.2152 32.943 55.2582 32.943 55.3281C32.943 55.398 33.0453 55.4625 33.2444 55.4625H45.501C45.8993 55.4625 46.05 55.3496 46.05 55.1454V49.5938C46.05 49.5024 45.9477 49.4379 45.8024 49.4379L45.797 49.4433ZM63.797 55.3335C63.797 55.398 63.7001 55.4678 63.4471 55.4678H56.245C55.9974 55.4678 55.8951 55.398 55.8951 55.3335C55.8951 55.269 56.0943 55.1991 56.245 55.1293L57.596 54.5166C57.7952 54.4252 57.8975 54.2694 57.8437 54.0652L57.0955 51.6843C57.047 51.5715 56.8963 51.4801 56.6433 51.4801H52.9453C52.7946 51.4801 52.6977 51.55 52.6439 51.636L51.8957 54.1296C51.8473 54.2855 51.9441 54.4252 52.1433 54.5381L53.2468 55.0594C53.4459 55.1723 53.7474 55.2636 53.7474 55.3335C53.7474 55.4033 53.6451 55.4678 53.3975 55.4678H47.6433C47.4442 55.4678 47.3419 55.398 47.3419 55.3335C47.3419 55.269 47.541 55.1723 47.6918 55.1078L49.0913 54.4736C49.3927 54.3392 49.4412 54.1135 49.495 53.9093L54.0488 38.6786C54.0973 38.5657 54.1995 38.4744 54.4525 38.4744H56.3042C56.5518 38.4744 56.7025 38.5872 56.7563 38.7216L61.5093 53.9308C61.5578 54.1565 61.7085 54.4037 62.0584 54.5435L63.5117 55.1346C63.6624 55.2045 63.8078 55.269 63.8078 55.3389L63.797 55.3335ZM56.5949 50.1204L54.8455 44.5688H54.7432L53.0907 50.1419C53.0422 50.2333 53.1391 50.2763 53.2414 50.2763H56.3903C56.541 50.2763 56.6379 50.2118 56.5895 50.1204H56.5949ZM77.34 49.4433C77.1409 49.4433 77.1409 49.5078 77.0386 49.5991L73.9381 53.9953C73.739 54.264 73.2384 54.3339 72.6355 54.3339H70.6331V40.0974C70.6331 39.8233 70.7354 39.6245 71.0853 39.4632L72.5871 38.8076C72.6893 38.7377 72.9369 38.6732 72.9369 38.6034C72.9369 38.5335 72.8347 38.469 72.6355 38.469H64.782C64.5829 38.469 64.4806 38.5389 64.4806 38.6034C64.4806 38.6678 64.7282 38.7377 64.8305 38.8076L66.3323 39.4632C66.6822 39.6191 66.7844 39.8233 66.7844 40.0974V53.8341C66.7844 54.1081 66.6822 54.3124 66.3323 54.4682L64.8305 55.1239C64.7282 55.2152 64.4806 55.2582 64.4806 55.3281C64.4806 55.398 64.5829 55.4625 64.782 55.4625H77.0386C77.4423 55.4625 77.5876 55.3496 77.5876 55.1454V49.5938C77.5876 49.5024 77.4854 49.4379 77.34 49.4379V49.4433ZM85.9847 39.4686L87.4865 38.8129C87.5834 38.7431 87.8364 38.6786 87.8364 38.6087C87.8364 38.5389 87.7341 38.4744 87.535 38.4744H79.6815C79.4824 38.4744 79.3801 38.5442 79.3801 38.6087C79.3801 38.6732 79.6277 38.7431 79.73 38.8129L81.2318 39.4686C81.5816 39.6245 81.6839 39.8287 81.6839 40.1028V53.8394C81.6839 54.1135 81.5816 54.3177 81.2318 54.4736L79.73 55.1293C79.6277 55.1991 79.3801 55.2636 79.3801 55.3335C79.3801 55.4033 79.4824 55.4678 79.6815 55.4678H87.535C87.7341 55.4678 87.8364 55.398 87.8364 55.3335C87.8364 55.269 87.5834 55.1991 87.4865 55.1293L85.9847 54.4736C85.6349 54.3177 85.5326 54.1135 85.5326 53.8394V40.1028C85.5326 39.8287 85.6349 39.6298 85.9847 39.4686ZM95.1785 47.5623V53.8394C95.1785 54.1135 95.2323 54.3392 95.6307 54.4736L97.4823 55.1293C97.633 55.1991 97.8322 55.2636 97.8322 55.3335C97.8322 55.4033 97.7299 55.4678 97.5308 55.4678H89.3274C89.1283 55.4678 89.0314 55.398 89.0314 55.3335C89.0314 55.269 89.279 55.2206 89.3813 55.1293L90.8831 54.4736C91.2329 54.3177 91.3298 54.1135 91.3298 53.8394V40.1028C91.3298 39.8287 91.2329 39.6298 90.8831 39.4686L89.3813 38.8129C89.279 38.7431 89.0314 38.6786 89.0314 38.6087C89.0314 38.5389 89.1283 38.4744 89.3274 38.4744H96.8795C100.782 38.4744 103.484 39.4041 103.484 42.8705C103.484 45.7941 101.385 47.5623 96.8795 47.5623H95.1785ZM95.1785 46.4283H96.6319C98.7311 46.4283 99.3824 45.3857 99.3824 42.8705C99.3824 40.3554 98.7311 39.6083 96.6319 39.6083H95.1785V46.4337V46.4283Z" fill="#231F20"></path><path id="Vector_3" d="M86.5233 33.4333C86.5233 33.4333 83.8104 32.998 80.064 33.1216C80.064 33.1216 76.6406 33.2129 74.9343 30.7408C74.9343 30.7408 68.2758 23.292 62.161 20.0943C62.161 20.0943 59.6849 18.6433 56.3422 18.1327C56.3422 18.1327 54.6143 18.1166 54.3775 15.5907C54.3775 15.5907 53.0695 2.50967 52.8111 1.78414C52.8111 1.78414 52.6658 -0.322575 51.2824 0.0375015C51.2824 0.0375015 50.4427 0.0751215 50.0067 2.36456C50.0067 2.36456 48.9517 7.19604 47.423 14.935C47.423 14.935 47.2776 17.2244 45.1299 17.6221C30.2842 18.4928 24.0241 28.4137 24.0241 28.4137C24.0241 28.4137 22.4039 30.4129 22.9152 31.9392L23.2597 33.2452C23.2597 33.2452 22.8614 34.4813 25.9188 34.6264L40.1455 34.3738L44.3332 39.8609C44.3332 39.8609 46.4594 42.3492 47.8805 39.5868C47.8805 39.5868 48.478 38.6947 47.7513 34.2663L61.6173 34.0137C61.6173 34.0137 67.0754 33.3957 68.8194 33.4655C68.8194 33.4655 73.1849 33.4279 73.4378 38.5496C73.4378 38.5496 73.4755 46.036 75.0419 48.0674C75.0419 48.0674 76.7536 51.1899 77.152 47.5569C77.152 47.5569 77.1143 44.9772 79.4827 41.4893C79.4827 41.4893 80.4301 40.5112 80.4301 39.7104C80.4301 39.7104 80.9737 39.963 82.9761 38.7269C82.9761 38.7269 86.0712 37.1684 87.8529 36.7277C87.8529 36.7277 89.457 36.1849 89.4893 35.3465C89.4893 35.3465 89.9253 34.1266 86.5233 33.4225V33.4333ZM53.4624 20.0352C53.5001 19.8793 54.3506 18.4283 54.8996 18.3101C55.4056 18.2026 56.7836 18.8367 56.8374 18.8582L56.9343 18.9066L56.8536 18.9818C56.8536 18.9818 56.0784 19.6805 55.4648 20.1481C55.0826 20.4383 55.4056 21.8947 55.5617 22.4321L55.5832 22.502L55.5132 22.5235C55.4002 22.5557 55.2764 22.5719 55.158 22.5719C54.5336 22.5719 54.0007 22.115 53.71 21.8732C53.6508 21.8195 53.597 21.7765 53.5593 21.7496C53.231 21.5185 53.4516 20.0513 53.457 20.0406L53.4624 20.0352ZM49.6353 14.7039C49.8829 12.8337 50.7064 6.71236 50.8518 6.52963C50.8895 6.48664 50.9002 6.40602 50.911 6.32003C50.9379 6.13193 50.9702 5.87934 51.3416 5.8471C51.4923 5.85785 51.5838 5.88472 51.6538 5.96533C51.8476 6.18568 51.783 6.63712 51.783 6.65324L52.3428 14.9726L52.2028 14.8329C51.8799 14.4997 51.4977 14.3331 51.0563 14.3331C50.3566 14.3331 49.7537 14.763 49.7483 14.7684L49.6137 14.8651L49.6353 14.6985V14.7039ZM50.8356 15.7304C51.6807 15.7304 52.3643 16.4129 52.3643 17.2567C52.3643 18.1005 51.6807 18.783 50.8356 18.783C49.9905 18.783 49.3069 18.1005 49.3069 17.2567C49.3069 16.4129 49.9905 15.7304 50.8356 15.7304ZM31.3715 26.9788C31.6353 26.7745 32.0229 26.6402 32.4535 26.5972C33.3686 26.5005 33.993 26.7907 34.0414 27.2797C34.0845 27.7204 33.7992 28.274 32.8303 28.3761C32.7226 28.3868 32.615 28.3922 32.5127 28.3922C31.7107 28.3922 31.0486 28.0697 31.0055 27.6559C30.9786 27.4195 31.1132 27.1722 31.3715 26.9788ZM23.3997 33.2452L32.8034 30.7461C32.9648 30.558 33.0241 30.3861 32.9756 30.241C32.9003 30.0099 32.5934 29.94 32.5504 29.94L23.1413 32.3154L23.0929 32.1381L32.798 29.6283C32.9379 29.7626 33.5085 30.3699 33.164 30.8429L23.4481 33.4387L23.3943 33.2452H23.3997ZM23.4804 32.4928L24.0779 32.3369L24.2071 32.8206L23.6096 32.9765L23.4804 32.4928ZM24.4278 32.2456L25.0199 32.0897L25.1491 32.5734L24.5516 32.7292L24.4278 32.2456ZM25.3751 31.9983L25.9726 31.8425L26.0964 32.3262L25.499 32.482L25.3751 31.9983ZM26.3225 31.7511L26.92 31.5953L27.0492 32.079L26.4571 32.2348L26.3279 31.7511H26.3225ZM27.2699 31.5039L27.8674 31.3481L27.9966 31.8317L27.3991 31.9876L27.2699 31.5039ZM28.2172 31.2567L28.8147 31.1008L28.9439 31.5845L28.3464 31.7404L28.2172 31.2567ZM29.1646 31.0095L29.7567 30.8536L29.8859 31.3373L29.2884 31.4932L29.1646 31.0095ZM30.112 30.7623L30.7095 30.6064L30.8387 31.0901L30.2412 31.2459L30.1174 30.7623H30.112ZM31.0593 30.515L31.6568 30.3592L31.7806 30.8429L31.1832 30.9987L31.0593 30.515ZM32.0067 30.2678L32.6042 30.112L32.7334 30.5957L32.1359 30.7515L32.0121 30.2678H32.0067ZM24.374 33.9062L24.3524 33.7504C24.4493 33.7235 33.8261 31.2567 35.4894 30.902C35.7746 30.8429 36.0492 30.8106 36.3129 30.8106C37.4541 30.8106 37.987 31.3803 38.0085 31.4072L39.7041 33.7342L24.374 33.9062ZM41.2328 23.5231C41.1843 23.5715 41.152 23.6145 41.1143 23.6628C40.9206 23.9101 40.7322 24.1411 39.3703 24.2379C39.2465 24.2486 39.1227 24.2486 39.0043 24.2486C37.6371 24.2486 36.3668 23.7542 35.8823 23.5392C35.5486 23.3887 33.9553 22.7815 33.6915 22.7815C33.3901 22.7815 32.2274 22.4321 32.179 22.416L32.1144 22.3945L32.2059 22.1365C32.2436 22.115 36.1461 19.8686 39.4295 19.1162C39.5049 19.1269 39.6018 19.1699 39.6502 19.272C39.7202 19.4279 39.6772 19.6536 39.5103 19.9492C39.2196 20.4651 39.4134 20.6694 39.5964 20.8628C39.6287 20.8951 39.6556 20.9273 39.6825 20.9596C39.7364 21.0294 39.8333 21.1692 39.9517 21.3358C40.1993 21.7012 40.5707 22.2548 40.8398 22.4751C41.1036 22.6901 41.3727 22.9427 41.3835 23.2006C41.3889 23.3189 41.3404 23.4264 41.2435 23.5231H41.2328ZM43.1437 34.1158C43.1437 33.4924 43.6496 32.9872 44.274 32.9872C44.8984 32.9872 45.4044 33.4924 45.4044 34.1158C45.4044 34.7392 44.8984 35.2444 44.274 35.2444C43.6496 35.2444 43.1437 34.7392 43.1437 34.1158ZM46.3141 38.3185C46.1849 38.4045 46.0557 38.4475 45.9212 38.4475C45.6413 38.4475 45.399 38.2648 45.2053 38.1143L45.1407 38.0659C44.8392 37.8402 43.9941 36.3246 43.9565 36.2601L43.8811 36.1312L44.0264 36.1527C45.582 36.3945 46.0773 35.2928 46.0934 35.2498L46.1688 35.0724L46.228 35.2552C46.7663 36.9051 46.7985 37.9907 46.3087 38.3185H46.3141ZM45.0007 29.064H44.9576L43.1437 25.9684L43.2352 25.9469C47.9989 24.7216 52.1759 24.469 54.8404 24.469C57.5049 24.469 59.0443 24.7108 59.0605 24.7108C59.728 24.7968 60.1155 24.9903 60.2016 25.2912C60.3308 25.7266 59.7764 26.1995 59.7495 26.221C57.1065 29.0049 45.4959 29.0694 45.0007 29.0747V29.064ZM65.3476 31.3911L65.213 31.4018C64.7555 31.434 63.8081 31.4932 62.4086 31.7565C61.9349 31.8425 61.5958 32.0413 61.402 32.3477C61.1059 32.7991 61.2297 33.3365 61.2297 33.3419L61.2513 33.4279H61.1598C59.6687 33.4655 54.6089 33.5408 54.6089 33.5408H54.5766L54.5551 33.5139C54.5228 33.4763 54.5174 33.4333 54.5336 33.3903C54.6143 33.1646 55.6263 32.9388 56.0515 32.8529C57.521 32.3208 58.5545 31.3749 58.5653 31.3642C58.6083 31.2943 59.9594 29.3273 61.7357 29.15C63.6358 28.9565 63.7004 29.0049 64.2656 29.1446C64.4002 29.1768 64.5563 29.2145 64.7662 29.2628C66.0904 29.5369 67.0216 30.1657 66.9409 30.7246C66.8601 31.2943 65.719 31.3749 65.3476 31.4072V31.3911ZM74.6597 35.1315C74.0569 35.1315 73.567 34.6425 73.567 34.0406C73.567 33.4387 74.0569 32.9496 74.6597 32.9496C75.2626 32.9496 75.7524 33.4387 75.7524 34.0406C75.7524 34.6425 75.2626 35.1315 74.6597 35.1315ZM85.8182 35.3196C85.5652 35.6851 85.3015 36.0613 81.3344 36.8728C78.1316 37.5285 77.884 38.5227 77.5933 39.6674C77.5341 39.8985 77.4749 40.1404 77.3888 40.3822C76.8882 41.8172 76.1185 45.3534 76.1077 45.391L76.0754 45.5362L75.9785 45.4233C74.6974 43.9239 75.3487 38.4099 75.381 38.1734C75.3433 36.0183 76.576 35.7926 77.8786 35.5561L78.024 35.5292C79.3966 35.2767 85.4899 35.2014 85.7482 35.2014H85.8882L85.8074 35.3143L85.8182 35.3196ZM31.673 27.5538C31.6461 27.2905 31.9637 26.9788 32.5396 26.9196C33.0833 26.8659 33.4601 27.0379 33.4924 27.3281C33.5085 27.4786 33.4601 27.6237 33.347 27.7365C33.2232 27.8709 33.0187 27.9569 32.7657 27.9838C32.7011 27.9891 32.6365 27.9945 32.5773 27.9945C32.0982 27.9945 31.7053 27.801 31.6784 27.5538H31.673ZM50.6203 27.4356C50.3404 28.0106 49.5868 28.2471 49.5545 28.2578L45.7274 28.4836L44.457 26.2962L44.5432 26.2694C44.5432 26.2694 46.3249 25.7266 46.5025 25.6567C46.6909 25.5815 48.3434 25.1408 49.0162 25.2536C49.097 25.2644 49.1723 25.2751 49.2477 25.2859C49.786 25.3557 50.2112 25.4095 50.6418 26.5542C50.7603 26.8713 50.7549 27.1722 50.6203 27.441V27.4356ZM58.2908 26.3016L58.2423 26.35C58.2423 26.35 58.2369 26.35 58.2315 26.3554L58.1939 26.3822C57.8601 26.6079 56.6544 27.3227 54.3129 27.715C52.2082 28.0697 51.4385 28.2149 51.1155 28.274C50.9863 28.3008 50.9325 28.3116 50.8895 28.317L50.7011 28.3385L50.8249 28.1934C50.8249 28.1934 51.5569 27.3442 51.4331 26.4682C51.3739 26.0275 51.1048 25.6459 50.6418 25.3396L50.4696 25.2267L50.6795 25.2106C50.7118 25.2106 53.7423 24.9419 55.8954 24.9419C56.8751 24.9419 57.5372 24.9957 57.8601 25.1085C58.2369 25.2375 58.463 25.4202 58.5168 25.6513C58.5814 25.9254 58.3984 26.1887 58.2961 26.307L58.2908 26.3016Z" fill="#231F20"></path><path id="Vector_4" d="M11.0409 69.699L10.3357 69.2583C10.2281 69.1938 10.1689 69.1347 10.1689 69.0863V66.3884C10.1689 65.6737 9.53907 65.1846 8.88776 64.9374C9.89434 64.5074 10.3842 63.755 10.3842 62.6479C10.3842 60.9765 9.25917 60.1973 6.84769 60.1973H4.10248C3.96791 60.1973 3.90332 60.2725 3.90332 60.3424C3.90332 60.4069 3.96253 60.4391 4.02174 60.4767C4.04327 60.4875 4.0648 60.5036 4.08633 60.5197L4.74303 60.8959C4.86145 60.9658 4.9099 61.0518 4.9099 61.1969V69.0111C4.9099 69.1616 4.86145 69.2422 4.74841 69.3121L4.08095 69.6936C4.08095 69.6936 4.04327 69.7151 4.02712 69.7312C3.96791 69.7635 3.9087 69.8011 3.9087 69.8602C3.9087 69.9301 3.9733 70.0053 4.10787 70.0053H7.55822C7.69279 70.0053 7.75738 69.9301 7.75738 69.8602C7.75738 69.7957 7.69817 69.7635 7.63896 69.7312C7.61743 69.7205 7.5959 69.7044 7.56898 69.6883L6.91229 69.3174C6.79386 69.2476 6.74542 69.1616 6.74542 69.0165V65.4211H7.05224C7.78968 65.4211 8.3441 65.8188 8.3441 66.3454V69.1186C8.3441 69.3282 8.45176 70.0107 9.81898 70.0107H10.9601C11.1162 70.0107 11.2454 70.0107 11.2454 69.9032C11.2454 69.828 11.1647 69.7796 11.0355 69.7044L11.0409 69.699ZM8.45714 62.6479C8.45714 64.1151 8.08035 64.6311 7.00918 64.6311H6.74542V60.9712H7.00918C8.08035 60.9712 8.45714 61.4119 8.45714 62.6426V62.6479ZM18.3453 60.38V63.5938C18.3453 63.6583 18.2968 63.7389 18.1676 63.7389C18.0546 63.7389 17.9631 63.6852 17.9308 63.6099L16.7466 61.1861C16.6766 61.0518 16.5044 60.9765 16.2352 60.9765H15.051V64.6203H15.4655C15.5301 64.6203 15.6162 64.6096 15.6539 64.5612L16.429 63.6529C16.4775 63.5992 16.5151 63.5508 16.612 63.5508C16.7089 63.5508 16.7681 63.6046 16.7681 63.6959V66.4314C16.7681 66.4637 16.7574 66.5658 16.612 66.5658C16.5044 66.5658 16.4559 66.5121 16.4182 66.4691L15.6593 65.5124C15.6216 65.4587 15.5355 65.4479 15.4709 65.4479H15.0564V69.2368H16.2406C16.5098 69.2368 16.7035 69.167 16.7735 69.038L17.9577 66.5658C18.0169 66.4261 18.3507 66.4314 18.3507 66.5927V69.828C18.3507 69.914 18.2753 70.0107 18.1084 70.0107H12.4189C12.2843 70.0107 12.2197 69.9355 12.2197 69.8656C12.2197 69.8065 12.2735 69.7742 12.322 69.7474C12.3435 69.7366 12.3758 69.7205 12.3866 69.7044L13.0648 69.3174C13.1832 69.2476 13.2263 69.1616 13.2263 69.0165V61.2023C13.2263 61.0518 13.1778 60.9712 13.0594 60.9013L12.4027 60.5251C12.4027 60.5251 12.3543 60.4929 12.3381 60.4821C12.2789 60.4499 12.2197 60.4122 12.2197 60.3478C12.2197 60.2779 12.2843 60.2026 12.4189 60.2026H18.1084C18.2269 60.2026 18.3507 60.2779 18.3507 60.3854L18.3453 60.38ZM23.5558 64.76C25.1222 66.7055 25.2837 67.1408 25.2837 68.1566C25.2837 69.613 23.9703 70.0053 23.1951 70.0053C22.5761 70.0053 22.194 69.8549 21.941 69.7581C21.801 69.7044 21.6019 69.6345 21.5265 69.6345C21.4727 69.6345 21.3381 69.6936 21.112 69.7957L20.8052 69.9355C20.7298 69.9731 20.6491 70.0107 20.563 70.0107C20.4176 70.0107 20.3853 69.9408 20.3853 69.8764V66.6249C20.3853 66.5443 20.4392 66.4691 20.563 66.4691C20.6383 66.4691 20.7083 66.5121 20.7514 66.5927C21.0797 67.4526 21.7633 69.2261 23.066 69.2261C23.4266 69.2261 23.6365 69.0057 23.6365 68.6241C23.6365 67.8019 23.0229 66.899 21.7418 65.3136C20.5791 63.8679 20.1001 62.8737 20.1001 61.8794C20.1001 60.7831 20.8214 60.2026 22.1886 60.2026C22.6407 60.2026 23.1359 60.3585 23.4481 60.5036C23.615 60.5627 23.7065 60.5735 23.7496 60.5735C23.8142 60.5735 24.0187 60.4929 24.2179 60.3746C24.4278 60.2618 24.5678 60.1973 24.7131 60.1973C24.8477 60.1973 24.9338 60.2779 24.9338 60.4069V63.6046C24.9338 63.6368 24.9176 63.7389 24.7346 63.7389C24.6485 63.7389 24.5785 63.6906 24.5408 63.6099C24.1802 62.5351 23.1306 60.9819 22.1886 60.9819C21.6987 60.9819 21.6611 61.1969 21.6611 61.5193C21.6611 62.132 21.9356 62.7447 23.5558 64.7654V64.76ZM30.112 60.1919C27.1246 60.1919 27.1246 63.6906 27.1246 64.8353C27.1246 67.3881 27.4798 70 30.112 70C32.7442 70 33.121 67.3881 33.121 64.8353C33.121 63.6852 33.121 60.1919 30.112 60.1919ZM30.112 69.2207C29.6329 69.2207 29.057 68.4629 29.057 64.8514C29.057 61.4764 29.7191 60.9712 30.112 60.9712C30.8064 60.9712 31.1886 62.347 31.1886 64.8514C31.1886 67.7535 30.8279 69.2207 30.112 69.2207ZM41.8303 69.6936L41.1251 69.2529C41.0175 69.1884 40.9583 69.1293 40.9583 69.081V66.3831C40.9583 65.6683 40.3285 65.1792 39.6772 64.932C40.6838 64.5021 41.1736 63.7497 41.1736 62.6426C41.1736 60.9712 40.0486 60.1919 37.6371 60.1919H34.8919C34.7573 60.1919 34.6927 60.2671 34.6927 60.337C34.6927 60.4015 34.7519 60.4337 34.8112 60.4714C34.8327 60.4821 34.8542 60.4982 34.8757 60.5144L35.5324 60.8906C35.6509 60.9604 35.6993 61.0464 35.6993 61.1915V69.0057C35.6993 69.1562 35.6509 69.2368 35.5378 69.3067L34.8704 69.6883C34.8704 69.6883 34.8327 69.7098 34.8165 69.7259C34.7573 69.7581 34.6981 69.7957 34.6981 69.8549C34.6981 69.9247 34.7627 70 34.8973 70H38.3476C38.4822 70 38.5468 69.9247 38.5468 69.8549C38.5468 69.7904 38.4876 69.7581 38.4284 69.7259C38.4068 69.7151 38.3853 69.699 38.3584 69.6829L37.7017 69.3121C37.5833 69.2422 37.5348 69.1562 37.5348 69.0111V65.4157H37.8417C38.5791 65.4157 39.1335 65.8134 39.1335 66.3401V69.1132C39.1335 69.3228 39.2412 70.0053 40.6084 70.0053H41.7495C41.9056 70.0053 42.0348 70.0053 42.0348 69.8978C42.0348 69.8226 41.9541 69.7742 41.8249 69.699L41.8303 69.6936ZM39.2466 62.6426C39.2466 64.1097 38.8698 64.6257 37.7986 64.6257H37.5348V60.9658H37.7986C38.8698 60.9658 39.2466 61.4065 39.2466 62.6372V62.6426ZM49.7914 60.3101V63.5723C49.7914 63.7282 49.6568 63.7282 49.6138 63.7282C49.4953 63.7282 49.4092 63.6852 49.3769 63.6099L48.2358 61.0464C48.1927 60.9765 48.1443 60.9443 48.0581 60.9443H47.3153V69.0057C47.3153 69.1562 47.3368 69.2368 47.4553 69.3067L48.112 69.6775C48.2304 69.742 48.3004 69.7796 48.3004 69.8549C48.3004 69.8978 48.2788 70 48.1012 70H44.6993C44.527 70 44.5001 69.9086 44.5001 69.8549C44.5001 69.785 44.5701 69.742 44.6455 69.7044L45.3452 69.3067C45.4636 69.2368 45.4852 69.1508 45.4852 69.0057V60.9443H44.7424C44.6562 60.9443 44.6024 60.9765 44.5593 61.0518L43.4182 63.6153C43.3859 63.6906 43.2998 63.7335 43.1814 63.7335C43.1383 63.7335 43.0037 63.7336 43.0037 63.5777V60.3155C43.0037 60.2456 43.0791 60.1973 43.1814 60.1973H49.6138C49.716 60.1973 49.7914 60.2456 49.7914 60.3155V60.3101ZM60.2447 60.4767V63.5454C60.2447 63.6529 60.164 63.7282 60.0456 63.7282C59.9217 63.7282 59.841 63.6637 59.8033 63.5401C59.658 62.9382 59.082 60.9712 57.8494 60.9712C56.9343 60.9712 56.7728 62.2234 56.7728 64.8514C56.7728 68.9144 57.3273 69.2207 58.1777 69.2207C59.3027 69.2207 59.7764 66.985 59.7818 66.7969C59.7818 66.7163 59.8464 66.6249 60.024 66.6249C60.2178 66.6249 60.2447 66.7378 60.2447 66.8076C60.2447 68.3823 59.9487 69.9946 57.7633 69.9946C55.1419 69.9946 54.8404 67.0495 54.8404 64.8299C54.8404 63.5616 54.8404 60.1865 57.7633 60.1865C58.1723 60.1865 58.5761 60.337 58.8452 60.466C59.1305 60.6057 59.3243 60.5573 59.5719 60.3961C59.771 60.2618 59.9217 60.1919 60.024 60.1919C60.2447 60.1919 60.2447 60.4015 60.2447 60.4767ZM68.4427 69.6775L67.8021 69.3443C67.6622 69.2744 67.6137 69.1455 67.5976 69.038L65.5091 60.38C65.4768 60.2618 65.3745 60.1919 65.2453 60.1919H64.4325C64.3087 60.1919 64.228 60.2456 64.1903 60.3585L62.1879 69.038C62.1664 69.1455 62.1502 69.2476 62.0479 69.3067L61.4343 69.6668C61.3266 69.7312 61.2459 69.7796 61.2459 69.8549C61.2459 69.9301 61.3105 70 61.4451 70H63.9696C64.1311 70 64.1903 69.9247 64.1903 69.8549C64.1903 69.785 64.1311 69.7581 64.0449 69.7098C64.0127 69.6883 63.975 69.6721 63.9373 69.6453L63.4582 69.3497C63.3667 69.2798 63.3667 69.2261 63.3721 69.1884L63.7004 67.7804C63.722 67.732 63.7597 67.732 63.7704 67.732H65.396C65.466 67.732 65.5144 67.7589 65.5306 67.7965L65.8589 69.1455C65.8751 69.2314 65.8482 69.2959 65.7836 69.3335L65.1484 69.7044C65.0731 69.7474 65.0031 69.785 65.0031 69.8549C65.0031 69.9193 65.0623 70 65.2238 70H68.3835C68.5449 70 68.6041 69.9247 68.6041 69.8549C68.6041 69.7796 68.5234 69.7312 68.4373 69.6775H68.4427ZM65.2938 66.9097H63.9104L64.594 63.9324L65.2938 66.9097ZM73.341 64.7547C74.9074 66.7002 75.0688 67.1355 75.0688 68.1512C75.0688 69.6076 73.7555 70 72.9803 70C72.3613 70 71.9791 69.8495 71.7262 69.7527C71.5862 69.699 71.387 69.6291 71.3117 69.6291C71.2579 69.6291 71.1233 69.6883 70.8972 69.7904L70.585 69.9301C70.5097 69.9677 70.4289 70.0053 70.3428 70.0053C70.1974 70.0053 70.1652 69.9355 70.1652 69.871V66.6195C70.1652 66.5389 70.219 66.4637 70.3428 66.4637C70.4181 66.4637 70.4881 66.5121 70.5312 66.5873C70.8595 67.4472 71.5431 69.2207 72.8458 69.2207C73.2064 69.2207 73.4163 69.0003 73.4163 68.6188C73.4163 67.7965 72.8027 66.8936 71.5216 65.3082C70.3589 63.8625 69.8799 62.8683 69.8799 61.874C69.8799 60.7777 70.6012 60.1973 71.9684 60.1973C72.4205 60.1973 72.9157 60.3531 73.2279 60.4982C73.3571 60.5412 73.4648 60.5681 73.5294 60.5681C73.594 60.5681 73.7985 60.4875 73.9977 60.3693C74.2076 60.2564 74.3476 60.1919 74.4929 60.1919C74.6275 60.1919 74.7136 60.2725 74.7136 60.4015V63.5992C74.7136 63.6314 74.6974 63.7335 74.5144 63.7335C74.4283 63.7335 74.3583 63.6852 74.3206 63.6046C73.96 62.5297 72.9157 60.9765 71.9684 60.9765C71.4785 60.9765 71.4409 61.1915 71.4409 61.514C71.4409 62.1266 71.7154 62.7393 73.3356 64.76L73.341 64.7547ZM79.3966 61.1861V69.0003C79.3966 69.1508 79.445 69.2314 79.5635 69.3013L80.2202 69.6721C80.2202 69.6721 80.2686 69.7044 80.2901 69.7151C80.3493 69.7474 80.4086 69.785 80.4086 69.8441C80.4086 69.914 80.344 69.9892 80.2094 69.9892H76.759C76.6245 69.9892 76.5599 69.914 76.5599 69.8441C76.5599 69.7796 76.6191 69.7474 76.6783 69.7151C76.6998 69.7044 76.7214 69.6882 76.7321 69.6775L77.405 69.2959C77.5234 69.2261 77.5665 69.1401 77.5665 68.995V61.1808C77.5665 61.0303 77.518 60.9497 77.3996 60.8798L76.7429 60.5036C76.7429 60.5036 76.6944 60.4714 76.6783 60.4606C76.6191 60.4284 76.5599 60.3907 76.5599 60.3263C76.5599 60.2564 76.6245 60.1812 76.759 60.1812H80.2094C80.344 60.1812 80.4086 60.2564 80.4086 60.3263C80.4086 60.3907 80.3493 60.423 80.2901 60.4552C80.2686 60.466 80.2471 60.4821 80.2363 60.4929L79.5635 60.8744C79.445 60.9443 79.402 61.0303 79.402 61.1754L79.3966 61.1861ZM89.0586 60.3209C89.0586 60.4015 88.9779 60.4499 88.9026 60.4875L88.3266 60.8744C88.2082 60.9658 88.1597 61.0572 88.1597 61.1808V69.785C88.1597 69.8656 88.122 69.9946 87.8744 69.9946H86.954C86.7279 69.9946 86.5234 69.8441 86.4534 69.6291L83.9719 62.836V69.0003C83.9719 69.1293 84.0258 69.2099 84.1603 69.2906L84.7578 69.6775C84.8601 69.7366 84.9408 69.7796 84.9408 69.8602C84.9408 69.9247 84.8709 69.9946 84.7417 69.9946H81.8404C81.7112 69.9946 81.6412 69.9247 81.6412 69.8602C81.6412 69.7904 81.7112 69.7474 81.7704 69.7151C81.7865 69.7044 81.8081 69.6936 81.8188 69.6829L82.3733 69.3013C82.4917 69.2099 82.5401 69.1186 82.5401 68.995V61.1808C82.5401 61.0572 82.4917 60.9712 82.3679 60.8744L81.8242 60.5036C81.8242 60.5036 81.7865 60.4767 81.7704 60.466C81.7112 60.4337 81.6412 60.3907 81.6412 60.3155C81.6412 60.251 81.7112 60.1812 81.8404 60.1812H84.4779C84.6879 60.1812 84.7632 60.3209 84.8063 60.4445L86.7387 65.7489V61.1754C86.7387 61.0303 86.6956 60.955 86.5718 60.8852L85.9528 60.4982C85.9528 60.4982 85.9151 60.4714 85.8936 60.4606C85.8344 60.4284 85.7644 60.3854 85.7644 60.3155C85.7644 60.251 85.8344 60.1812 85.9636 60.1812H88.8595C88.9887 60.1812 89.0586 60.251 89.0586 60.3155V60.3209ZM93.6232 60.1865C90.6358 60.1865 90.6358 63.6852 90.6358 64.8299C90.6358 67.3827 90.9911 69.9946 93.6232 69.9946C96.2554 69.9946 96.6322 67.3827 96.6322 64.8299C96.6322 63.6798 96.6322 60.1865 93.6232 60.1865ZM93.6232 69.2153C93.1442 69.2153 92.5736 68.4575 92.5736 64.846C92.5736 61.471 93.2303 60.9658 93.6232 60.9658C94.3176 60.9658 94.6998 62.3416 94.6998 64.846C94.6998 67.7481 94.3391 69.2153 93.6232 69.2153Z" fill="#231F20"></path></g></g><defs><clipPath id="clip0_9707_6549"><rect width="103.478" height="70" fill="white"></rect></clipPath></defs></svg>